# xmcd
# 
# Track frame offsets:
#     150
#     21412
#     46950
#     61458
#     84225
#     104175
#     117847
#     136110
#     157575
#     202500
#     221250
#     234502
#     250882
#     271245
#     293401
#     322125
# 
# Disc length: 4337
# 
# Revision: 0
# Processed by: cddbd v1.5.2PL0 Copyright (c) Steve Scherf et al.
# Submitted via: BonkEnc v1.0.6
# 
DISCID=d410ef10
DTITLE=Aashid Himons - Mountain Soul
DYEAR=1998
DGENRE=Blues
TTITLE0=Country Blues
TTITLE1=Stranger to Paradise
TTITLE2=The Crazy Blues
TTITLE3=I Bet You'll Be Dead
TTITLE4=Circle of Fault
TTITLE5=Mr. Bailey
TTITLE6=Nothing but a Lifetime
TTITLE7=High De High, Ho De Ho
TTITLE8=Voodoo Child
TTITLE9=Just Another Rollin' Stone
TTITLE10=Bacon Fat
TTITLE11=You've Got to Move
TTITLE12=Got My Mojo Working
TTITLE13=The Captain's Song
TTITLE14=Will the Circle Be Unbroken
TTITLE15=Small Circle
EXTD=
EXTT0=
EXTT1=
EXTT2=
EXTT3=
EXTT4=
EXTT5=
EXTT6=
EXTT7=
EXTT8=
EXTT9=
EXTT10=
EXTT11=
EXTT12=
EXTT13=
EXTT14=
EXTT15=
PLAYORDER=
